<svg xmlns="http://www.w3.org/2000/svg" viewBox="0 0 350 301"><defs><style>.cls-1{fill:#ccc;}.cls-1,.cls-2{stroke:#000;stroke-miterlimit:10;}.cls-2{fill:none;}.cls-3{font-size:20px;font-family:CourierNewPS-BoldMT, Courier New;font-weight:700;}.cls-4{opacity:0.8;}</style></defs><title>Asset 3</title><g id="Layer_2" data-name="Layer 2"><g id="Layer_4" data-name="Layer 4"><rect class="cls-1" x="0.5" y="0.5" width="349" height="300"/><rect class="cls-1" x="17.5" y="9.5" width="318" height="40"/><line class="cls-2" x1="284.5" y1="49.5" x2="265.5" y2="110.5"/><line class="cls-2" x1="315.5" y1="49.5" x2="265.5" y2="110.5"/><text class="cls-3" transform="translate(47.33 34)">Article has no picture</text></g><g id="bro_winky_face" data-name="bro winky face"><path d="M108,153.36c-3.89-19.88-6.14-43.71,5-61.76a63.64,63.64,0,0,1,18.41-18.82,52.18,52.18,0,0,1,10.75-5.31c1.72-.68,3.86-1.64,5.38-2.34,1.2-.56,2.48-1.47,3.75-2,5-2.25,12-2.74,17.41-3.31a103.9,103.9,0,0,1,15.58-.48,106.84,106.84,0,0,1,16.9,2.13c5.17,1.08,11.51,2.14,16,5,4,2.54,5.95,6.87,9.56,9.77,2.86,2.29,6.23,3.61,9.49,5.2,9.71,4.74,12.45,15.42,13.56,25.52,1.17,10.63.45,21.6.06,32.26a64.1,64.1,0,0,1-11,34.16c-.83,1.19,1.12,2.31,1.95,1.13,6.3-9,9.54-19.34,10.9-30.16a182.7,182.7,0,0,0,.68-34c-.59-8.73-2.22-20.65-8.94-27-2.54-2.4-5.86-3.69-9-5.16a26.89,26.89,0,0,1-6.64-3.92c-2.18-2-3.68-4.64-5.77-6.7-7.09-7-19.27-8.4-28.69-9.62a107.77,107.77,0,0,0-35.15,1.3c-7.72,1.56-14.68,4.63-21.78,7.9-8,3.67-15.65,10.65-21.1,17.42-15.72,19.53-14,46.24-9.47,69.51.28,1.42,2.45.81,2.17-.6Z"/><path d="M114.81,166.23a160.25,160.25,0,0,0,13.36-54.58c.09-1.45-2.16-1.44-2.25,0a157,157,0,0,1-13,53.44c-.58,1.32,1.36,2.46,1.94,1.14Z"/><path d="M215.56,103c5.3,11.11,12.29,21.86,16.32,33.52,4.23,12.22,3.17,25.74,5,38.41.21,1.42,2.38.82,2.17-.6-1.88-12.76-.75-26.44-5.05-38.75-4.09-11.72-11.19-22.55-16.53-33.72-.62-1.31-2.56-.17-1.94,1.14Z"/><path d="M127.84,112.64c7.79-4.09,14.73-2.42,22.93-.88a158.4,158.4,0,0,0,19.3,2.48c13.45.81,26.85-.73,39.49-5.54,1.34-.5.76-2.68-.6-2.17-14.21,5.41-29.28,6.53-44.33,5-12.75-1.29-25.79-7.21-37.93-.85-1.28.68-.15,2.62,1.14,2Z"/><path d="M217.07,103.17a79.66,79.66,0,0,0,10.65-21.26c.46-1.38-1.72-2-2.17-.6A77.89,77.89,0,0,1,215.13,102c-.83,1.18,1.12,2.31,1.94,1.13Z"/><path d="M109,164.21a22.63,22.63,0,0,0,2.37,2.89,1.5,1.5,0,1,0,2.12-2.12,17.89,17.89,0,0,1-1.9-2.29,1.53,1.53,0,0,0-2.05-.53,1.51,1.51,0,0,0-.54,2.05Z"/><path d="M105.52,153.66A40.39,40.39,0,0,0,108.7,163c.91,1.87,2.07,5.1,4.59,4.88a1.18,1.18,0,0,0,1.09-.83,8.48,8.48,0,0,1,1.26-2.79c.81-1.21-1.14-2.34-2-1.14a10.48,10.48,0,0,0-1.48,3.33l1.08-.82c-1.43.12-3.56-5.77-3.87-6.57a41.3,41.3,0,0,1-1.73-6c-.31-1.41-2.47-.82-2.17.6Z"/><path d="M211.51,108.48a13.93,13.93,0,0,0,5.4-4.76c1.09-1.6-1.51-3.1-2.59-1.51a11.07,11.07,0,0,1-4.32,3.68c-1.73.86-.21,3.45,1.51,2.59Z"/><path d="M178.24,278.19c10.43,3.14,18.16,1.73,26.12-5.87,8.16-7.8,17-15.64,23.39-25,.82-1.2-1.13-2.33-1.94-1.13-5.33,7.82-12.52,14.2-19.23,20.8-3.11,3.07-6.16,6.5-10,8.65-5.88,3.28-11.6,2.24-17.72.4a1.13,1.13,0,0,0-.6,2.17Z"/><path d="M228.44,246.47c4.78-10.53,5.52-22.32,10.27-32.87.59-1.31-1.35-2.45-1.94-1.13-4.76,10.55-5.5,22.35-10.27,32.87-.59,1.31,1.34,2.45,1.94,1.13Z"/><path d="M249.65,157.83c3.75-.79,3.75,11.29,3.67,13.11-.2,4.28-1.07,8.49-1.65,12.73-.4,2.9-.52,5.77-.69,8.69-.28,5-2.5,7.42-5.1,11.35-.81,1.21,1.14,2.34,1.94,1.13,2.62-3.94,5.06-6.83,5.39-11.72.4-6,1.2-11.84,1.95-17.81.5-4,1.92-21.35-6.11-19.65-1.42.3-.82,2.47.6,2.17Z"/><path d="M246.08,203.78a13.34,13.34,0,0,1-6.71,4.32,3.06,3.06,0,0,0-1.94,1.56c-.48,1-.24,2.13-.76,3.08-.69,1.28,1.25,2.41,1.94,1.14a12.17,12.17,0,0,0,.7-2.63c.38-1.23,1.85-1.27,2.92-1.73a13.88,13.88,0,0,0,5.44-4.15c.9-1.12-.69-2.73-1.59-1.59Z"/><path d="M239.06,176.59a10.74,10.74,0,0,0,4.06-5.52c.6-1.84-2.3-2.63-2.89-.8a7.4,7.4,0,0,1-2.68,3.73c-1.56,1.11-.06,3.72,1.51,2.59Z"/><path d="M248.08,200.2l-1.72,2.88c-.41.68-.84,1.75-1.67,2a1.13,1.13,0,0,0,.6,2.17,4.32,4.32,0,0,0,2.42-2.05c.81-1.26,1.55-2.57,2.32-3.85a1.13,1.13,0,0,0-1.95-1.14Z"/><path d="M237.44,215.19a20.28,20.28,0,0,1,1.18-4.53c.35-.9-1.1-1.29-1.45-.4A20.22,20.22,0,0,0,236,214.8c-.13.94,1.31,1.35,1.45.39Z"/><path d="M249.28,198.45c-2.86,3.72-5.84,7.45-10.18,9.5-.88.41-.11,1.7.75,1.29,4.58-2.16,7.71-6.11,10.72-10,.59-.76-.71-1.51-1.29-.75Z"/><path d="M106.47,153.54l.64,2c.39,1.22,2.32.7,1.92-.53l-.63-2c-.39-1.22-2.32-.69-1.93.54Z"/><path d="M107.22,155.87a30.81,30.81,0,0,1,1.89,6.85c.15.95,1.59.55,1.45-.39a31.29,31.29,0,0,0-1.89-6.86c-.36-.88-1.81-.5-1.45.4Z"/><path d="M103.78,143.25a48,48,0,0,0,1.59,10.17.75.75,0,0,0,1.44-.39,46.23,46.23,0,0,1-1.53-9.78c0-1-1.55-1-1.5,0Z"/><path d="M177.24,276c-6.23,1.83-12.16,2.92-18.14-.4-3.93-2.18-7-5.56-10.26-8.65-6.85-6.6-14.2-13-19.66-20.8-.82-1.18-2.77-.06-1.94,1.13,6.55,9.41,15.57,17.23,23.91,25,8.18,7.63,16.07,9,26.69,5.87a1.13,1.13,0,0,0-.6-2.17Z"/><path d="M128.47,245.34c-4.87-10.51-5.64-22.33-10.5-32.87-.6-1.32-2.54-.18-1.94,1.13,4.85,10.53,5.62,22.36,10.5,32.87.61,1.32,2.55.18,1.94-1.13Z"/><path d="M105.6,157.66c-8.16-1.67-6.76,15.55-6.24,19.65.72,5.71,1.71,11.28,2,17.05.25,5.34,2.65,8.21,5.57,12.48.81,1.19,2.76.07,1.94-1.13-2.37-3.47-4.88-6.17-5.24-10.59-.25-3.17-.28-6.29-.73-9.45-.55-3.95-1.36-7.87-1.63-11.85-.16-2.26-.41-14.84,3.76-14,1.41.29,2-1.88.59-2.17Z"/><path d="M104,203.53c3.09,3.92,6.33,7.8,11,9.93,1.16.53,2.18-1.19,1-1.73-4.48-2-7.57-5.83-10.56-9.61-.8-1-2.2.41-1.41,1.41Z"/><path d="M107.33,160.12a1.12,1.12,0,0,0,0-2.24,1.12,1.12,0,0,0,0,2.24Z"/><path d="M104.24,203.31a27.85,27.85,0,0,0,11.17,10c1.3.64,2.44-1.3,1.14-1.94a25.58,25.58,0,0,1-10.37-9.22c-.78-1.22-2.73-.09-1.94,1.13Z"/><path d="M124.61,159.62c2.85-8.28,15-15.23,23.52-15.38,5-.09,9,2.46,13.49,4.33a24.07,24.07,0,0,1,3.22,1.2c1.67,1.63,1.07,4.07,1.09,6.23a.75.75,0,0,0,1.5,0l-.06-6.56a.77.77,0,0,0-.55-.72c-4.79-1.2-8.89-4.07-13.63-5.34a20.29,20.29,0,0,0-12.5.92c-7,2.62-15,7.55-17.52,14.92-.32.92,1.13,1.31,1.44.4Z"/><path d="M166.38,154.74c-7-3.92-14.69-4-22.46-2.94-7.16,1-15.58,1.8-20.52,7.67-.62.73.44,1.8,1.06,1.06,4.45-5.29,11.78-6.07,18.23-7.05,7.87-1.2,15.78-1.45,22.93,2.56a.75.75,0,0,0,.76-1.3Z"/><path d="M228.72,160.22c-2.32-7.15-9.74-12.24-16.47-14.9a18.31,18.31,0,0,0-11.12-1.13c-4.79,1.15-8.82,4.26-13.59,5.53a.78.78,0,0,0-.55.72l-.06,6.56a.75.75,0,0,0,1.5,0c0-2.09-.56-4.6,1-6.23a18.9,18.9,0,0,1,3-1.2c4-1.78,7.61-4.22,12.12-4.31,8.47-.18,20,7.18,22.68,15.36.29.92,1.74.53,1.44-.4Z"/><path d="M188.41,157.78c6.09-4.71,13.37-5.09,20.74-4.28,6.62.73,13.89,1.46,18.32,7,.6.76,1.66-.31,1.06-1.06-4.71-5.93-12.3-6.68-19.38-7.47-7.87-.87-15.37-.26-21.8,4.72-.76.59.31,1.64,1.06,1.06Z"/><path d="M199.26,162.29a11.71,11.71,0,0,1-5.2,5.94.75.75,0,0,0,.75,1.3,13.35,13.35,0,0,0,5.9-6.84c.35-.9-1.1-1.29-1.45-.4Z"/><path d="M224.68,168.92c-6.05-2.18-9.4-7-16.14-7.88-4.3-.58-10-1.19-13.18,2.34-.65.71.41,1.78,1.06,1.06,3.6-4,13-2.33,17.22-.47,3.85,1.71,6.64,4.95,10.64,6.4.91.33,1.31-1.12.4-1.45Z"/><path d="M222.07,168.74a29.24,29.24,0,0,1-26.72-.84c-.84-.47-1.6.83-.75,1.29a30.8,30.8,0,0,0,28.22.85c.88-.41.12-1.71-.75-1.3Z"/><path d="M212.49,164.66a4.42,4.42,0,0,1-.6,4.32c-.29.39.36.76.64.38a5.13,5.13,0,0,0,.69-4.9c-.17-.45-.9-.25-.73.2Z"/><path d="M202.51,162.68a5.83,5.83,0,0,0,1.78,8.18c.41.25.79-.39.38-.65a5.09,5.09,0,0,1-1.52-7.15c.28-.4-.37-.77-.64-.38Z"/><path d="M207.5,168.75c2.9,0,2.9-4.5,0-4.5s-2.9,4.5,0,4.5Z"/><path d="M203.32,162.94l.25-.38c.26-.4-.39-.78-.65-.38l-.25.38c-.26.4.38.78.65.38Z"/><path d="M211.86,168.86a6.2,6.2,0,0,1-4.24,2.35c-.47,0-.48.8,0,.75a6.94,6.94,0,0,0,4.77-2.57c.3-.37-.22-.9-.53-.53Z"/><path d="M213.39,164.9a3.08,3.08,0,0,0-.88-1.78c-.34-.35-.87.18-.53.53a2.53,2.53,0,0,1,.69,1.45c.06.47.79.27.72-.2Z"/><path d="M132.93,174.76c3.55-3.49,8.56-4.2,13.21-5.31L160.67,166c1.4-.33.81-2.5-.6-2.17-6,1.46-12.12,2.86-18.16,4.36-4,1-7.59,2.1-10.57,5a1.12,1.12,0,0,0,1.59,1.59Z"/><path d="M171.53,165.49c.28,4.06.69,8-.63,11.93-.89,2.63-1.74,4.59-1.76,7.49,0,3.85.71,7.51-.42,11.29-.82,2.74-2,4.89-1.91,7.81.05,1,1.55,1,1.5,0-.15-3.54,1.88-6.32,2.4-9.72.48-3.12-.13-6.25-.07-9.38.06-3.73,2-6.43,2.61-9.91.53-3,0-6.5-.22-9.51-.07-1-1.57-1-1.5,0Z"/><path d="M168,197.18c-2.85.14-5.89,1.26-7,4.15-1.23,3.33.94,6.46,2.79,9,.56.78,1.86,0,1.3-.76-1.39-1.93-3.15-4.14-2.91-6.65.29-3,3.13-4.16,5.78-4.29,1,0,1-1.54,0-1.5Z"/><g class="cls-4"><path d="M173,212.33l-4.53-1.52c-.46-.15-.66.57-.2.73l4.53,1.52c.46.15.66-.57.2-.73Z"/></g><path d="M200.5,135.67c-7.32-.51-14.44,2.83-21.53,2.22-7.44-.65-14.4-1.44-22-1.16-.48,0-.48.77,0,.75,3.76-.14,7.52-.3,11.28-.15s7.52,1.16,11.3,1.44c2.56.19,5.12-.66,7.62-1.16a48.71,48.71,0,0,1,13.29-1.19c.48,0,.48-.72,0-.75Z"/><path d="M249.31,166.4l-4.67,7.39c-.26.41.39.78.65.38l4.67-7.4c.26-.4-.39-.78-.65-.37Z"/><path d="M247.53,170.14a28.16,28.16,0,0,1-2.17,22.49c-.23.42.42.8.65.38a28.94,28.94,0,0,0,2.24-23.07c-.15-.46-.87-.26-.72.2Z"/><path d="M239.17,184.85a8.26,8.26,0,0,1,2.87,8.52.37.37,0,0,0,.72.2,9,9,0,0,0-3.06-9.25c-.37-.31-.9.22-.53.53Z"/><path d="M102.49,168.65a68.49,68.49,0,0,0,5.25,11,.37.37,0,0,0,.64-.37,68.51,68.51,0,0,1-5.17-10.83c-.16-.44-.89-.25-.72.2Z"/><path d="M104.89,174A33.63,33.63,0,0,0,107,199.26c.21.43.86.05.65-.38a32.81,32.81,0,0,1-2.08-24.7.37.37,0,0,0-.72-.2Z"/><path d="M110,185.2a9.62,9.62,0,0,0,.78,11.5c.31.37.84-.16.53-.53a8.87,8.87,0,0,1-.67-10.59c.27-.41-.38-.79-.64-.38Z"/><path d="M190.89,260.63c-8.24-3.18-19.22-5.58-26.66.6-.37.31.16.84.53.54,7.22-6,18-3.49,25.93-.42.45.18.65-.55.2-.72Z"/><path d="M186.81,190.61a13.33,13.33,0,0,1,1.76,7.88c0,.49.71.48.75,0a14.12,14.12,0,0,0-1.86-8.26.38.38,0,0,0-.65.38Z"/><path d="M190.1,197.31c5.51-.32,4.78,13.46-.49,12.06a.37.37,0,0,0-.2.72c6.64,1.76,7.28-13.92.69-13.53-.48,0-.48.78,0,.75Z"/><g class="cls-4"><path d="M185,213l-4.42-.23c-.49,0-.49.72,0,.75l4.42.23c.48,0,.48-.73,0-.75Z"/></g><path d="M176.27,219.32l-.61,4.32c-.13.94,1.31,1.35,1.45.4l.61-4.32c.13-.94-1.31-1.35-1.45-.4Z"/><path d="M176.54,218.73c-10.21-1.15-20.86-2.16-30.74,1.32-.9.32-.51,1.77.4,1.45,9.74-3.44,20.27-2.4,30.34-1.27,1,.1,1-1.4,0-1.5Z"/><path d="M175.82,223.85a198.34,198.34,0,0,0-29-3.6c-1-.05-1,1.45,0,1.5a195.44,195.44,0,0,1,28.63,3.55c.94.18,1.34-1.26.4-1.45Z"/><path d="M179.15,219.37l-.77,4.18c-.17.94,1.27,1.34,1.45.4l.77-4.18c.17-1-1.27-1.35-1.45-.4Z"/><path d="M180,220.29c11-1.49,21.55,1.4,31.79,5.28.91.34,1.3-1.11.4-1.45-10.39-3.94-21-6.84-32.19-5.33-.95.12-1,1.62,0,1.5Z"/><path d="M179.08,224.9c11-1,22.2.29,33.18.86,1,0,1-1.46,0-1.5-11-.57-22.2-1.83-33.18-.86-1,.09-1,1.59,0,1.5Z"/><path d="M135.18,172.39c6.63-1,14.16-2,20.29-4.82.87-.41.11-1.7-.76-1.3-6,2.77-13.49,3.72-19.93,4.67-.95.14-.55,1.59.4,1.45Z"/><path d="M155.07,231.47c4.61,5,9.84,7.45,16.43,8.86.95.2,1.35-1.25.4-1.45-6.31-1.35-11.36-3.7-15.77-8.47-.66-.71-1.71.36-1.06,1.06Z"/><path d="M164,176.64c-5.46,11.13-15.85,13.93-27.35,14.61-.48,0-.49.77,0,.75,11.82-.7,22.41-3.59,28-15,.21-.43-.44-.81-.65-.38Z"/><path d="M154.3,207.71a23.86,23.86,0,0,0-13.6,18.53c-.07.47.66.68.72.2a23.17,23.17,0,0,1,13.26-18.08c.44-.21.06-.85-.38-.65Z"/><path d="M201.38,235.48c-4.66,2.66-9.73,3.32-15,3.73-4.8.37-10.65,1.27-15.23-.5-.9-.35-1.29,1.1-.39,1.44,5.3,2.06,12.07.92,17.58.4,4.87-.47,9.51-1.32,13.79-3.77a.75.75,0,0,0-.75-1.3Z"/><path d="M154.63,232.11a39.61,39.61,0,0,0,13,11.37c.85.46,1.6-.83.76-1.3a37.66,37.66,0,0,1-12.41-10.83c-.57-.77-1.87,0-1.3.76Z"/><path d="M168.76,243.91A151.9,151.9,0,0,0,192,245.18a.75.75,0,0,0,0-1.5,151.9,151.9,0,0,1-23.25-1.27c-.95-.13-.94,1.37,0,1.5Z"/><path d="M192.74,245c4-2.39,8-4.35,9.92-8.77.39-.87-.9-1.64-1.29-.76-1.86,4.17-5.66,6-9.38,8.23a.75.75,0,0,0,.75,1.3Z"/><path d="M153.23,227.77c5.76,5.51,15.86,4.88,23.26,5.33,1,.06,1-1.44,0-1.5-7-.42-16.8.27-22.2-4.89-.7-.67-1.76.39-1.06,1.06Z"/><path d="M176.8,233.06c7.64,2,15.56,1.48,23.31,2.78.95.15,1.35-1.29.4-1.45-7.75-1.29-15.69-.74-23.31-2.78a.75.75,0,0,0-.4,1.45Z"/><path d="M177.27,229.62c-6.84-4.46-16.26-1.35-23.79-3.87-.92-.3-1.31,1.14-.4,1.45,7.36,2.46,16.86-.56,23.43,3.71.81.53,1.57-.77.76-1.29Z"/><path d="M177.16,230.87c7.93.64,17.47.07,24,5.26.75.6,1.82-.46,1.07-1.06-7-5.5-16.69-5-25.1-5.7-1-.08-1,1.42,0,1.5Z"/><path d="M168.5,243.75a.75.75,0,0,0,0-1.5.75.75,0,0,0,0,1.5Z"/></g></g></svg>